Coordinates
version=1
nRows=14
nColumns=33
inDegrees=yes

Units are S.I. units (second, meters, Newtons, ...)
Angles are in degrees.

endheader
time	ground_thorax_rot_x	ground_thorax_rot_y	ground_thorax_rot_z	ground_thorax_tx	ground_thorax_ty	ground_thorax_tz	clav_prot_r	clav_elev_r	scapula_abduction_r	scapula_elevation_r	scapula_upward_rot_r	scapula_winging_r	shoulder_elv_r	plane_of_elev_r	axial_rot_r	elbow_flexion_r	pro_sup_r	wrist_flex_r	wrist_dev_r	clav_prot_l	clav_elev_l	scapula_abduction_l	scapula_elevation_l	scapula_upward_rot_l	scapula_winging_l	shoulder_elv_l	plane_of_elev_l	axial_rot_l	elbow_flexion_l	pro_sup_l	wrist_flex_l	wrist_dev_l
      4.10000000	      2.26691859	      3.20463734	     11.66209723	     -0.11815404	      1.03531804	      0.02865231	      3.76341871	     11.81167288	     16.59046384	      7.64779342	     22.69901558	    -10.03120496	      8.76650764	    -74.05466957	     53.97059333	     51.88561036	    -25.65832938	     70.00000021	    -24.99999983	     11.12303167	     -3.91976368	    -17.08045577	    -22.50411021	    -44.99992910	     -0.66008560	     63.13920842	    -39.50010806	     -6.43755292	     67.96385225	     24.60475950	      1.07505257	    -24.99999983
      4.11000000	      2.27277780	      3.28394346	     11.77299190	     -0.11840910	      1.03529642	      0.02864859	      3.60947771	     11.67688280	     16.34254216	      7.53679166	     22.69805570	     -9.95345961	      8.65923090	    -74.05756249	     54.05135839	     51.66736767	    -25.76764116	     70.00000021	    -24.99999983	     11.10047330	     -4.01107510	    -17.01245220	    -22.38151309	    -44.91788844	     -0.66611502	     62.79871131	    -39.61838747	     -6.31099366	     67.36983125	     24.65428378	      0.83667653	    -24.99999983
      4.12000000	      2.27304565	      3.29253685	     11.77860060	     -0.11880556	      1.03477223	      0.02853402	      3.57831061	     11.62564965	     16.30361640	      7.49257199	     22.70044205	     -9.94197255	      8.63018299	    -73.99588923	     54.05224279	     51.69466008	    -25.77584885	     70.00000021	    -24.99999983	     11.06970476	     -4.05558595	    -16.98594240	    -22.37683690	    -45.00000000	     -0.68683106	     62.70017534	    -39.64038918	     -6.32929856	     67.27828108	     24.66868622	      0.81771415	    -24.99999983
      4.13000000	      2.29754735	      3.37518664	     11.82783090	     -0.11900933	      1.03506289	      0.02862517	      3.37026577	     11.46136027	     15.89950474	      7.38388606	     22.62701063	     -9.80662824	      8.70930720	    -73.82182453	     53.85957786	     51.49002487	    -25.97465061	     70.00000021	    -24.99999983	     11.01614210	     -4.22805352	    -16.87383062	    -22.18799877	    -44.94095498	     -0.70559770	     62.47548244	    -39.48260021	     -6.01944593	     66.54549727	     24.78277222	      0.46873985	    -24.99999983
      4.14000000	      1.88321408	      4.12891380	     11.95427238	     -0.11955320	      1.03450708	      0.02895854	      2.53957814	     11.31372096	     14.25126073	      7.32058093	     22.51985648	     -9.31498009	      8.77558771	    -73.28423433	     54.21904456	     51.65184311	    -26.68911529	     70.00000021	    -24.99999983	     11.99663147	     -3.90275103	    -18.62357283	    -22.46871715	    -45.00000000	      0.03498098	     61.54375360	    -38.67168949	     -5.76273429	     66.06293938	     25.86112574	     -3.72825791	    -24.99999983
      4.15000000	      1.85718073	      4.16154570	     12.06458900	     -0.11995216	      1.03407729	      0.02886444	      2.52627178	     11.27928592	     14.24660319	      7.28888844	     22.52713145	     -9.31615825	      8.76730060	    -73.23306218	     54.20994550	     51.69275298	    -26.68082614	     70.00000021	    -24.99999983	     11.97658328	     -3.95549893	    -18.58267317	    -22.41079798	    -44.98018663	      0.02991611	     61.53122346	    -38.60352347	     -5.73331412	     66.06849229	     25.85804866	     -3.73506750	    -24.99999983
      4.16000000	      1.83593670	      4.21275087	     12.12553124	     -0.11997073	      1.03407196	      0.02902330	      2.41323688	     11.14565121	     13.97508355	      7.21930241	     22.40517303	     -9.21713015	      8.90988397	    -73.14771594	     53.94032437	     51.85078179	    -26.65884786	     70.00000021	    -24.99999983	     11.87900217	     -4.16266671	    -18.40453341	    -22.20920953	    -44.95763577	     -0.02705837	     61.54964910	    -38.53670634	     -5.31885663	     65.77750385	     25.86466337	     -3.84886304	    -24.99999983
      4.17000000	      1.80241341	      4.23147282	     12.24137324	     -0.12027928	      1.03367210	      0.02897836	      2.40761588	     11.13238351	     13.98663017	      7.20113745	     22.42502749	     -9.22431718	      8.92155128	    -73.10634661	     53.92634462	     51.87766590	    -26.65590703	     70.00000021	    -24.99999983	     11.87645059	     -4.19879394	    -18.38318582	    -22.15300357	    -44.90712805	     -0.02361385	     61.57083730	    -38.44892493	     -5.29743457	     65.81600901	     25.86029634	     -3.85914489	    -24.99999983
      4.18000000	      1.79969021	      4.39449104	     12.28484760	     -0.12026938	      1.03326423	      0.02897608	      2.40993543	     11.10318394	     13.91744602	      7.21175882	     22.31928851	     -9.18599365	      8.90959267	    -73.10584174	     53.90329646	     51.99874437	    -26.63316271	     70.00000021	    -24.99999983	     11.84369911	     -4.27849012	    -18.29352094	    -22.03000497	    -44.79880316	     -0.03131550	     61.64212237	    -38.29039167	     -5.13587242	     65.87579718	     25.85217833	     -3.92682963	    -24.99999983
      4.19000000	      1.76295123	      4.39187930	     12.38532588	     -0.12045748	      1.03299668	      0.02901381	      2.40383144	     11.09879557	     13.91784708	      7.20250722	     22.33814831	     -9.19295527	      8.93391147	    -73.07407369	     53.87809653	     52.02668622	    -26.63434399	     70.00000021	    -24.99999983	     11.84752189	     -4.30755851	    -18.27898589	    -21.97773693	    -44.74186047	     -0.02600495	     61.67875464	    -38.21215376	     -5.10268076	     65.90840080	     25.84778055	     -3.94147223	    -24.99999983
      4.20000000	      1.77814594	      4.71047630	     12.22183993	     -0.12057105	      1.03287104	      0.02955118	      2.36445705	     10.77730254	     13.21167239	      7.23823763	     21.44933931	     -8.84611381	     10.15630863	    -73.03007367	     53.20079233	     53.09752076	    -26.30567041	     70.00000021	    -24.99999983	     12.01021878	     -4.75045538	    -18.63588600	    -21.64038935	    -44.95468073	      0.14354317	     62.06446054	    -37.97516689	     -4.87462074	     65.87673225	     26.08724793	     -5.20765793	    -24.99999983
      4.21000000	      1.70943872	      4.74825139	     12.19396799	     -0.12043834	      1.03233362	      0.02952675	      2.33110158	     10.83100010	     13.16091879	      7.27120985	     21.49195244	     -8.84111628	     10.23193200	    -72.99089834	     53.31419883	     53.27741769	    -26.20943365	     70.00000021	    -24.99999983	     12.01266774	     -4.68426473	    -18.63294534	    -21.69097938	    -44.92635894	      0.14299844	     62.09629963	    -37.86301077	     -4.63988213	     66.25434234	     26.05272861	     -5.43627596	    -24.99999983
      4.22000000	      1.67198820	      4.82305919	     12.23723000	     -0.12033803	      1.03219998	      0.02960590	      2.34977216	     10.85638347	     13.15984202	      7.30401962	     21.46056055	     -8.83914890	     10.23097095	    -73.01236710	     53.36220822	     53.35387424	    -26.18505959	     70.00000021	    -24.99999983	     12.02956229	     -4.69607550	    -18.63378036	    -21.64073262	    -44.84101126	      0.15798122	     62.18285157	    -37.77198691	     -4.55012928	     66.30440054	     26.04039014	     -5.48573450	    -24.99999983
      4.23000000	      1.63667035	      4.84886207	     12.10050644	     -0.12024917	      1.03186122	      0.02979451	      2.32361380	     10.93486172	     13.11818029	      7.35612321	     21.50815961	     -8.83654487	     10.39454058	    -72.98022553	     53.40057110	     53.80722629	    -26.11701065	     70.00000021	    -24.99999983	     12.09143802	     -4.68358739	    -18.73166102	    -21.63353851	    -44.80605562	      0.20949777	     62.28949420	    -37.62730438	     -4.42141175	     66.64506860	     25.98710528	     -5.65920060	    -24.99999983
